<?xml version="1.0" standalone="no"?>
<!DOCTYPE svg PUBLIC "-//W3C//DTD SVG 20010904//EN"
 "http://www.w3.org/TR/2001/REC-SVG-20010904/DTD/svg10.dtd">
<svg version="1.0" xmlns="http://www.w3.org/2000/svg"
 width="474.000000pt" height="450.000000pt" viewBox="0 0 474.000000 450.000000"
 preserveAspectRatio="xMidYMid meet">

<g transform="translate(0.000000,450.000000) scale(0.100000,-0.100000)"
fill="#000000" stroke="none">
<path d="M2990 3680 c-51 -51 8 -139 74 -109 28 13 48 52 39 76 -19 54 -76 70
-113 33z"/>
<path d="M680 3632 c-38 -19 -60 -52 -60 -94 0 -23 -4 -28 -26 -28 -14 0 -39
-8 -55 -17 -61 -36 -59 -16 -59 -758 0 -606 2 -681 16 -711 29 -61 44 -64 329
-64 l255 0 0 -78 c0 -43 7 -102 15 -130 13 -44 22 -55 54 -72 21 -10 70 -24
107 -30 100 -17 474 -14 643 5 79 8 155 15 170 15 l28 0 38 -267 c20 -148 42
-271 46 -274 5 -3 -7 -40 -27 -83 -19 -43 -34 -80 -32 -82 2 -2 21 35 42 81
l38 85 40 0 c37 0 40 -2 35 -23 -60 -256 -99 -499 -118 -744 l-12 -153 -84 0
-83 0 0 58 c0 149 41 374 100 557 22 65 38 121 35 123 -7 7 -83 -241 -103
-338 -24 -110 -42 -263 -42 -350 l0 -60 632 0 631 0 -6 138 c-10 221 -69 461
-169 686 -22 50 -40 96 -39 101 0 6 9 89 20 185 12 96 21 183 21 193 0 10 4
17 9 15 4 -1 58 -62 119 -133 232 -276 402 -403 519 -392 120 12 271 137 447
372 86 114 84 108 46 142 l-33 30 37 61 38 61 135 0 135 0 57 49 c31 27 57 56
59 63 2 11 -20 18 -90 27 -50 7 -94 15 -97 18 -3 2 5 11 17 20 45 31 28 41
-70 42 -58 0 -110 6 -137 16 -54 20 -104 20 -139 2 -15 -8 -54 -42 -87 -76
-33 -34 -70 -66 -81 -70 -17 -7 -192 -202 -237 -264 -9 -14 -70 50 -247 259
-74 88 -177 203 -230 256 -88 89 -100 99 -163 118 -73 22 -202 41 -282 41
l-51 0 -12 78 c-6 42 -15 107 -18 145 l-6 67 41 0 c46 0 87 30 77 57 -4 9 6
26 24 43 37 34 39 72 7 104 -18 18 -22 28 -15 46 15 40 -17 100 -52 100 -11 0
-21 12 -26 31 -5 18 -21 41 -36 52 -22 16 -31 18 -57 9 l-31 -11 0 340 c0 289
-2 345 -16 370 -31 61 3 59 -991 59 -844 0 -910 -1 -943 -18z m1879 -3 c43
-15 61 -54 61 -134 l0 -65 -995 0 -995 0 0 65 c0 78 15 114 55 131 40 18 1824
20 1874 3z m-1939 -794 l0 -665 29 -32 29 -33 212 -3 212 -3 -7 -57 c-4 -31
-10 -61 -14 -65 -5 -4 -126 -7 -269 -5 l-262 3 -27 28 -28 27 0 704 c0 690 0
704 20 726 23 26 50 38 83 39 l22 1 0 -665z m2000 318 c0 -208 -3 -264 -12
-255 -23 23 -78 14 -108 -18 -15 -17 -31 -30 -36 -30 -4 0 -16 -7 -26 -17 -22
-20 -23 -62 -2 -106 15 -32 15 -36 -5 -75 -16 -32 -27 -42 -46 -42 -29 0 -33
-24 -9 -58 9 -13 13 -31 9 -43 -18 -55 28 -149 82 -170 33 -12 29 -62 -4 -67
-21 -3 -23 -9 -23 -56 l0 -53 -157 -7 c-87 -4 -210 -14 -273 -22 -136 -18
-470 -30 -470 -18 0 5 13 94 29 197 24 163 26 189 13 196 -12 7 -13 19 -3 82
16 98 22 112 107 264 41 72 76 145 80 163 11 55 -28 43 -100 -32 -51 -54 -63
-62 -74 -50 -7 8 -22 14 -33 14 -11 0 -36 18 -56 40 -21 22 -43 40 -49 40 -21
0 -62 -57 -79 -112 -10 -29 -31 -86 -47 -126 -24 -57 -29 -83 -25 -115 4 -29
-1 -61 -16 -102 -19 -50 -26 -60 -48 -63 -25 -3 -29 -12 -68 -145 -22 -78 -46
-168 -52 -199 l-12 -58 -199 0 c-211 0 -245 6 -268 49 -6 13 -10 234 -10 640
l0 621 995 0 995 0 0 -267z m-865 -135 c-7 -22 -33 -73 -128 -247 -30 -55 -45
-98 -57 -165 l-16 -91 -138 -3 c-109 -2 -137 0 -134 10 3 7 13 36 22 65 14 41
21 51 34 46 13 -5 12 0 -5 19 -30 31 -29 57 3 128 20 45 30 57 44 53 21 -6 35
-71 31 -149 -2 -29 1 -54 6 -57 10 -6 9 138 -2 177 -6 22 -5 28 5 24 21 -7 48
-47 75 -113 13 -33 25 -52 25 -43 0 10 -7 35 -16 57 -15 37 -14 40 10 76 24
35 32 55 22 55 -2 0 -13 -16 -25 -35 -42 -71 -57 -23 -17 55 25 51 64 72 90
51 14 -12 14 -16 -5 -43 -37 -52 -15 -39 31 18 50 63 125 134 140 134 7 0 9
-9 5 -22z m-288 -46 c-9 -10 -26 -40 -38 -67 -23 -52 -37 -68 -52 -58 -12 7 1
60 29 115 26 51 42 62 63 42 13 -12 12 -16 -2 -32z m53 -13 c0 -5 -11 -26 -24
-47 -14 -20 -28 -49 -32 -65 -5 -22 -9 -25 -20 -16 -8 6 -14 20 -14 31 0 21
25 75 47 100 15 16 43 14 43 -3z m1057 -259 l61 0 -16 -50 c-15 -48 -15 -53 3
-85 21 -41 32 -44 44 -12 24 62 84 75 89 19 3 -29 0 -34 -34 -48 l-37 -16 7
-113 6 -114 -95 -3 c-52 -2 -95 -1 -95 1 0 2 16 25 35 51 19 26 35 50 35 54 0
3 -15 -3 -32 -14 -81 -49 -148 2 -148 112 0 47 3 58 16 58 9 0 23 8 30 18 11
15 12 12 4 -17 -5 -19 -7 -38 -4 -42 8 -13 32 -11 40 3 5 8 2 9 -11 5 -15 -6
-17 -3 -11 25 8 40 15 47 27 25 16 -27 67 -22 81 7 17 39 4 56 -41 56 -31 0
-43 -5 -52 -22 l-12 -22 -8 22 c-5 12 -13 22 -19 22 -5 0 0 21 12 46 18 36 26
44 43 40 11 -3 48 -6 82 -6z m-997 -219 c0 -49 -42 -296 -52 -310 -7 -9 -32
-37 -57 -63 -25 -26 -43 -50 -40 -52 2 -2 45 2 94 9 52 7 74 13 53 14 -21 1
-38 6 -38 12 0 9 30 10 108 6 77 -4 145 0 242 13 164 23 471 44 523 36 l37 -6
0 60 0 60 129 0 129 0 6 -31 c3 -17 6 -42 6 -55 0 -23 4 -24 58 -24 86 0 214
-18 288 -41 57 -18 75 -30 142 -97 42 -42 131 -140 196 -217 66 -77 146 -170
179 -208 l59 -67 -4 -60 c-1 -33 0 -60 3 -60 4 0 71 76 150 170 78 93 145 170
148 170 3 -1 68 -60 145 -133 l138 -133 -76 -101 c-139 -188 -284 -322 -387
-359 -130 -46 -286 53 -526 334 l-105 122 -19 128 c-10 70 -19 133 -19 140 0
6 -3 12 -8 12 -4 0 -20 -127 -36 -282 -15 -156 -30 -292 -32 -303 -5 -20 -12
-20 -416 -18 -226 2 -412 4 -414 6 -2 2 -22 134 -44 293 -22 159 -44 303 -48
319 l-8 30 -41 -61 -42 -61 -160 -13 c-98 -8 -247 -11 -383 -8 -345 8 -364 21
-362 238 1 138 24 260 91 488 l36 122 178 0 c171 0 179 -1 179 -19z m2763
-635 c57 -25 124 -48 148 -52 71 -9 76 -13 49 -31 -18 -13 -43 -17 -95 -16
-47 1 -63 -1 -50 -7 41 -18 118 -10 160 15 42 26 65 32 65 16 0 -5 -26 -30
-57 -55 l-58 -46 -133 0 -133 0 -37 -60 c-20 -32 -40 -58 -43 -57 -4 1 -50 44
-104 95 l-98 93 39 41 c21 22 61 58 89 80 47 38 53 40 102 35 29 -3 97 -25
156 -51z m127 15 c0 -4 -11 -14 -25 -21 -22 -12 -31 -11 -65 6 l-40 19 65 2
c36 0 65 -2 65 -6z m-2110 -737 c0 -3 -9 -40 -20 -83 -45 -177 -83 -416 -105
-664 -8 -89 -15 -163 -15 -164 0 -2 -12 -3 -28 -3 -32 0 -30 -19 -12 205 14
173 41 365 51 365 5 0 6 7 3 15 -6 15 24 172 53 278 14 52 18 57 44 57 16 0
29 -3 29 -6z m494 -109 c52 -221 106 -605 106 -751 l0 -54 -175 0 -175 0 -2
223 -3 222 -2 -223 -3 -222 -180 0 -180 0 0 33 c0 49 28 308 46 432 15 107 81
432 90 447 3 5 105 8 228 8 l222 0 28 -115z m59 88 c3 -16 19 -93 35 -173 38
-178 57 -307 77 -514 20 -215 21 -206 -13 -206 l-29 0 -12 143 c-21 246 -61
499 -109 700 l-19 77 32 0 c28 0 34 -4 38 -27z m110 -20 c104 -207 183 -510
194 -741 l6 -132 -80 0 c-92 0 -93 1 -93 83 0 65 -34 366 -55 490 -15 88 -59
292 -71 330 -4 14 1 17 35 17 38 0 42 -3 64 -47z"/>
<path d="M724 3556 c-11 -28 1 -51 28 -54 31 -4 48 29 28 53 -16 19 -49 19
-56 1z m45 -24 c0 -11 -3 -12 -6 -4 -2 6 -9 12 -14 12 -6 0 -7 -5 -3 -12 4 -7
3 -8 -5 -4 -9 6 -9 11 0 22 14 17 29 9 28 -14z"/>
<path d="M821 3551 c-13 -24 8 -55 34 -50 28 6 42 34 26 53 -18 22 -48 20 -60
-3z m46 -7 c3 -8 1 -20 -6 -27 -8 -8 -11 -5 -11 12 0 14 -4 20 -12 15 -7 -4
-8 -3 -4 4 10 17 26 15 33 -4z"/>
<path d="M919 3554 c-17 -21 0 -49 31 -49 31 0 48 28 31 49 -8 9 -21 16 -31
16 -10 0 -23 -7 -31 -16z m51 -25 c0 -5 -9 -9 -20 -9 -19 0 -27 20 -13 33 7 8
33 -11 33 -24z"/>
<path d="M2542 2470 c-7 -11 -21 -20 -32 -20 -11 0 -20 -4 -20 -10 0 -5 6 -10
14 -10 20 0 59 35 55 48 -3 8 -9 4 -17 -8z"/>
<path d="M1638 2083 c12 -2 32 -2 45 0 12 2 2 4 -23 4 -25 0 -35 -2 -22 -4z"/>
<path d="M4175 1800 c-4 -6 7 -10 27 -10 19 0 44 -7 56 -16 12 -8 22 -10 22
-5 0 14 -53 41 -79 41 -11 0 -23 -4 -26 -10z"/>
<path d="M2545 1055 c-14 -13 -25 -36 -25 -50 0 -33 42 -75 75 -75 33 0 75 42
75 75 0 33 -42 75 -75 75 -14 0 -37 -11 -50 -25z m93 -7 c7 -7 12 -26 12 -43
0 -39 -16 -55 -56 -55 -36 0 -56 19 -56 55 0 14 5 32 12 40 15 18 71 20 88 3z"/>
<path d="M2558 846 c-7 -62 -2 -113 15 -133 12 -16 43 -17 52 -2 4 6 1 10 -6
8 -47 -6 -48 -3 -51 94 -3 90 -3 91 -10 33z"/>
<path d="M3542 3411 c-15 -16 -56 -85 -91 -153 -62 -118 -64 -126 -52 -155 9
-22 29 -40 66 -60 52 -26 55 -30 70 -88 16 -57 20 -63 67 -89 l50 -28 63 17
63 17 52 -27 c31 -16 64 -25 83 -23 37 4 57 30 141 191 80 153 90 138 -205
299 -128 70 -245 127 -257 128 -14 0 -35 -12 -50 -29z m246 -76 c175 -95 212
-122 212 -154 0 -9 -33 -77 -74 -151 -89 -163 -96 -168 -188 -124 -34 16 -64
28 -67 27 -3 0 -29 -8 -58 -16 l-52 -16 -17 59 c-15 55 -20 61 -73 93 -87 52
-87 61 -2 219 74 136 91 158 123 158 10 0 98 -43 196 -95z"/>
<path d="M3644 3290 c-57 -23 -70 -101 -29 -187 21 -46 28 -53 53 -53 48 0
127 28 152 55 45 48 21 135 -38 135 -13 0 -40 14 -59 30 -36 32 -45 34 -79 20z
m70 -26 c9 -8 16 -20 16 -25 0 -5 14 -9 30 -9 36 0 70 -31 70 -63 0 -54 -65
-97 -145 -97 -41 0 -44 2 -59 40 -21 53 -21 128 1 152 20 22 66 24 87 2z"/>
<path d="M3560 2500 c-11 -11 -20 -26 -20 -34 0 -14 36 -46 52 -46 11 0 48 38
48 50 0 6 -9 19 -20 30 -11 11 -24 20 -30 20 -5 0 -19 -9 -30 -20z m52 -7 c10
-9 18 -20 18 -24 0 -10 -29 -39 -40 -39 -11 0 -40 29 -40 40 0 10 28 40 37 40
4 0 15 -7 25 -17z"/>
<path d="M636 999 c-50 -40 -25 -119 39 -119 64 0 89 79 39 119 -15 12 -32 21
-39 21 -7 0 -24 -9 -39 -21z m72 -5 c43 -30 20 -104 -32 -104 -56 0 -75 82
-26 107 32 16 31 16 58 -3z"/>
<path d="M3592 528 c-28 -28 -7 -78 33 -78 27 0 45 18 45 45 0 27 -18 45 -45
45 -12 0 -26 -5 -33 -12z m63 -18 c8 -27 -12 -52 -39 -48 -21 3 -32 28 -22 54
8 22 54 18 61 -6z"/>
</g>
</svg>
