<svg width="600" height="600" viewBox="0 0 600 600" fill="none"
    xmlns="http://www.w3.org/2000/svg">
    <g clip-path="url(#clip0_14404_1991)">
        <path d="M539.784 452.381C511.915 480.25 479.093 502.618 443.19 518.21C407.287 533.802 369.007 542.311 330.536 543.252C292.065 544.193 254.156 537.547 218.973 523.694C183.79 509.841 152.023 489.052 125.486 462.514C98.9476 435.977 78.1588 404.209 64.3058 369.027C50.4528 333.844 43.8072 295.935 44.7482 257.464C45.6891 218.993 54.1983 180.713 69.79 144.81C85.3816 108.907 107.75 76.0844 135.619 48.2158L224.535 137.132C208.929 152.739 196.402 171.119 187.671 191.225C178.94 211.331 174.175 232.767 173.648 254.311C173.121 275.855 176.842 297.084 184.6 316.786C192.358 336.489 203.999 354.278 218.861 369.139C233.722 384.001 251.511 395.642 271.214 403.4C290.916 411.158 312.145 414.879 333.689 414.352C355.233 413.825 376.669 409.06 396.775 400.329C416.881 391.598 435.261 379.071 450.868 363.465L539.784 452.381Z" fill="#9282FA"/>
        <path fill-rule="evenodd" clip-rule="evenodd" d="M135.789 55.1684L223.476 135.901L230.249 128.544L135.476 41.287L132.083 44.6796C103.774 72.9891 81.0473 106.335 65.2038 142.818C49.3601 179.301 40.7066 218.215 39.7496 257.341C38.7926 296.468 45.5513 335.042 59.6535 370.858C73.7559 406.674 94.9231 439.022 121.95 466.049C148.977 493.076 181.325 514.243 217.141 528.346C252.957 542.448 291.531 549.207 330.658 548.25C369.785 547.293 408.698 538.639 445.182 522.795C481.664 506.952 515.01 484.225 543.32 455.916L546.855 452.38L454.403 359.928L447.332 367L532.685 452.352C506.038 478.153 475.002 498.943 441.198 513.623C405.876 528.963 368.23 537.328 330.414 538.253C292.598 539.177 255.355 532.645 220.805 519.041C186.256 505.438 155.07 485.027 129.021 458.978C102.972 432.929 82.5616 401.743 68.9582 367.194C55.3544 332.644 48.8217 295.401 49.7466 257.585C50.6716 219.769 59.0366 182.123 74.3762 146.801C89.0834 112.935 109.923 81.8473 135.789 55.1684Z" fill="#05060F"/>
        <path d="M477 362.097C477 374.524 467.15 384.597 455 384.597C442.85 384.597 433 374.524 433 362.097C433 349.671 442.85 339.597 455 339.597C467.15 339.597 477 349.671 477 362.097Z" fill="white"/>
        <path fill-rule="evenodd" clip-rule="evenodd" d="M455 344.597C445.716 344.597 438 352.326 438 362.097C438 371.869 445.716 379.597 455 379.597C464.284 379.597 472 371.869 472 362.097C472 352.326 464.284 344.597 455 344.597ZM428 362.097C428 347.016 439.983 334.597 455 334.597C470.017 334.597 482 347.016 482 362.097C482 377.178 470.017 389.597 455 389.597C439.983 389.597 428 377.178 428 362.097Z" fill="#05060F"/>
        <path d="M555 449.097C555 461.524 544.926 471.597 532.5 471.597C520.074 471.597 510 461.524 510 449.097C510 436.671 520.074 426.597 532.5 426.597C544.926 426.597 555 436.671 555 449.097Z" fill="white"/>
        <path fill-rule="evenodd" clip-rule="evenodd" d="M532.5 431.597C522.835 431.597 515 439.432 515 449.097C515 458.762 522.835 466.597 532.5 466.597C542.165 466.597 550 458.762 550 449.097C550 439.432 542.165 431.597 532.5 431.597ZM505 449.097C505 433.909 517.312 421.597 532.5 421.597C547.688 421.597 560 433.909 560 449.097C560 464.285 547.688 476.597 532.5 476.597C517.312 476.597 505 464.285 505 449.097Z" fill="#05060F"/>
        <path d="M415.015 207.976L269.13 168.349C266.202 167.554 263.741 170.622 265.106 173.367L333.245 310.34C334.662 313.189 338.764 312.892 339.726 309.871L357.841 252.945C358.461 250.997 359.747 249.34 361.469 248.271L415.978 214.448C418.603 212.82 418.002 208.787 415.015 207.976Z" fill="#F8DB46"/>
        <path fill-rule="evenodd" clip-rule="evenodd" d="M260.63 175.594C257.425 169.151 263.172 161.549 270.441 163.524L416.325 203.151C423.486 205.096 424.992 214.74 418.615 218.697L364.105 252.52C363.405 252.954 362.868 253.637 362.605 254.461L344.49 311.387C342.143 318.764 332.15 319.366 328.768 312.567L260.63 175.594ZM271.029 174.046L336.085 304.823L353.076 251.429C354.054 248.356 356.088 245.726 358.833 244.023L410.536 211.941L271.029 174.046Z" fill="#05060F"/>
        <path fill-rule="evenodd" clip-rule="evenodd" d="M175.136 213.355C172.744 211.975 171.925 208.917 173.306 206.525L260.908 54.7931C262.289 52.4017 265.347 51.5823 267.738 52.963C270.13 54.3437 270.949 57.4017 269.568 59.7931L181.966 211.525C180.585 213.917 177.527 214.736 175.136 213.355Z" fill="#05060F"/>
        <path d="M215.949 111.343C227.764 108.177 239.909 115.188 243.074 127.003C246.24 138.818 239.229 150.963 227.414 154.129C215.598 157.294 203.454 150.283 200.288 138.468C197.122 126.653 204.134 114.508 215.949 111.343Z" fill="#F8DB46"/>
        <path fill-rule="evenodd" clip-rule="evenodd" d="M205.118 137.174C207.569 146.321 216.972 151.75 226.119 149.299C235.267 146.848 240.696 137.445 238.245 128.297C235.793 119.149 226.391 113.721 217.243 116.172C208.095 118.623 202.667 128.026 205.118 137.174ZM228.708 158.958C214.225 162.839 199.339 154.244 195.459 139.762C191.578 125.279 200.172 110.393 214.655 106.513C229.137 102.632 244.023 111.227 247.904 125.709C251.784 140.191 243.19 155.077 228.708 158.958Z" fill="#05060F"/>
        <path d="M261.166 44.77C267.812 42.9892 274.643 46.9332 276.424 53.5792C278.205 60.2251 274.261 67.0564 267.615 68.8371C260.969 70.6179 254.137 66.6739 252.357 60.0279C250.576 53.382 254.52 46.5507 261.166 44.77Z" fill="white"/>
        <path fill-rule="evenodd" clip-rule="evenodd" d="M257.186 58.7341C258.252 62.7128 262.342 65.0739 266.321 64.0078C270.299 62.9417 272.66 58.8522 271.594 54.8736C270.528 50.8949 266.439 48.5338 262.46 49.5999C258.481 50.666 256.12 54.7555 257.186 58.7341ZM268.909 73.6671C259.596 76.1626 250.023 70.6356 247.527 61.3223C245.032 52.009 250.559 42.4361 259.872 39.9406C269.185 37.4451 278.758 42.9721 281.254 52.2854C283.749 61.5987 278.222 71.1716 268.909 73.6671Z" fill="#05060F"/>
        <path d="M174.411 196.993C181.057 195.212 187.888 199.156 189.669 205.802C191.45 212.448 187.506 219.279 180.86 221.06C174.214 222.841 167.383 218.897 165.602 212.251C163.821 205.605 167.765 198.773 174.411 196.993Z" fill="white"/>
        <path fill-rule="evenodd" clip-rule="evenodd" d="M170.431 210.956C171.497 214.935 175.587 217.296 179.566 216.23C183.544 215.164 185.905 211.074 184.839 207.096C183.773 203.117 179.684 200.756 175.705 201.822C171.726 202.888 169.365 206.978 170.431 210.956ZM182.154 225.889C172.84 228.385 163.268 222.858 160.772 213.545C158.277 204.231 163.803 194.658 173.117 192.163C182.43 189.667 192.003 195.194 194.498 204.508C196.994 213.821 191.467 223.394 182.154 225.889Z" fill="#05060F"/>
    </g>
    <defs>
        <clipPath id="clip0_14404_1991">
            <rect width="600" height="600" fill="white"/>
        </clipPath>
    </defs>
</svg>
