<?xml version="1.0" standalone="no"?>
<!DOCTYPE svg PUBLIC "-//W3C//DTD SVG 20010904//EN"
 "http://www.w3.org/TR/2001/REC-SVG-20010904/DTD/svg10.dtd">
<svg version="1.0"
    xmlns="http://www.w3.org/2000/svg" width="450.000000pt" height="450.000000pt" viewBox="0 0 450.000000 450.000000" preserveAspectRatio="xMidYMid meet">

    <g transform="translate(0.000000,450.000000) scale(0.100000,-0.100000)" fill="#000000" stroke="none">
        <path d="M3586 3645 c-42 -15 -92 -58 -102 -87 -4 -13 -15 -18 -45 -18 -31 0
-47 -7 -73 -32 -19 -18 -37 -44 -41 -58 -4 -18 0 -14 15 12 24 44 65 68 115
68 23 0 35 5 35 13 0 27 67 84 111 95 80 20 173 -24 200 -95 12 -33 11 -110
-1 -134 -7 -12 -7 -19 -1 -19 27 0 32 119 8 167 -22 41 -70 80 -115 93 -47 13
-58 12 -106 -5z"/>
        <path d="M1093 3630 c-41 -9 -101 -55 -115 -86 -8 -17 -19 -24 -41 -24 -61 0
-137 -62 -137 -111 0 -8 10 4 23 26 25 45 79 78 119 72 20 -2 29 2 33 14 10
30 82 87 124 99 55 15 111 -1 161 -46 59 -53 69 -100 45 -204 -4 -21 -3 -21 9
5 64 131 -75 291 -221 255z"/>
        <path d="M3661 3591 c14 -4 39 -17 55 -26 l29 -18 -20 21 c-11 12 -36 24 -55
27 -29 4 -31 4 -9 -4z"/>
        <path d="M1144 3571 c4 -6 15 -11 25 -11 10 0 30 -9 45 -21 14 -11 26 -16 26
-11 0 13 -42 40 -75 48 -20 5 -26 4 -21 -5z"/>
        <path d="M3757 3490 c3 -11 7 -20 9 -20 2 0 4 9 4 20 0 11 -4 20 -9 20 -5 0
-7 -9 -4 -20z"/>
        <path d="M1258 3463 c5 -21 7 -23 10 -9 2 10 0 22 -6 28 -6 6 -7 0 -4 -19z"/>
        <path d="M3412 3483 c-19 -7 -44 -61 -32 -68 6 -3 10 3 10 15 0 12 13 28 33
40 29 18 22 26 -11 13z"/>
        <path d="M882 3437 c-12 -13 -22 -32 -21 -43 1 -14 3 -13 8 6 4 15 21 32 41
42 27 14 30 18 14 18 -11 0 -30 -10 -42 -23z"/>
        <path d="M2172 3225 c-19 -8 -46 -28 -62 -45 -15 -16 -35 -30 -43 -30 -9 0
-25 -12 -36 -26 -25 -32 -29 -110 -7 -140 10 -13 11 -23 4 -31 -29 -36 27 -93
92 -93 34 0 41 17 9 22 -30 4 -47 33 -33 56 15 24 64 22 78 -3 6 -11 12 -22
14 -25 7 -10 22 27 22 56 0 28 2 30 29 26 22 -3 36 2 55 21 17 17 32 24 45 20
37 -10 71 6 88 41 21 45 11 95 -28 132 -28 27 -37 29 -112 32 -56 1 -92 -2
-115 -13z m68 -25 c-19 -4 -44 -11 -55 -14 -20 -8 -20 -7 -1 8 11 9 36 15 55
15 l36 -1 -35 -8z m154 -131 c-9 -10 -24 -19 -33 -18 -11 0 -9 4 7 11 12 6 26
23 29 37 6 21 8 22 11 8 2 -10 -4 -27 -14 -38z m-344 -24 c-5 -27 -9 -35 -14
-24 -6 14 10 76 18 68 2 -2 1 -22 -4 -44z m250 1 c0 -13 -34 -36 -53 -36 -18
0 -15 4 13 19 19 10 36 19 38 20 1 0 2 -1 2 -3z"/>
        <path d="M3042 3189 c-13 -5 -28 -21 -35 -36 -14 -32 -26 -36 -125 -37 -84 -1
-115 -21 -126 -80 -8 -41 -13 -43 -82 -36 -66 7 -89 -1 -108 -39 -22 -41 -20
-93 4 -124 16 -20 33 -27 78 -32 31 -4 64 -14 73 -21 9 -8 46 -17 84 -21 54
-5 72 -11 90 -31 20 -21 38 -26 155 -39 l131 -15 26 23 c88 81 105 152 56 237
-34 60 -49 72 -92 73 -20 0 -44 4 -54 8 -15 5 -12 9 17 19 20 8 36 18 36 23 0
13 -7 11 -34 -7 -16 -10 -26 -12 -31 -5 -11 19 -23 12 -18 -9 9 -32 -30 -25
-50 10 -35 59 -19 135 27 128 17 -2 22 -12 27 -48 l5 -45 5 40 c3 28 9 41 22
43 14 3 17 -4 17 -37 0 -23 5 -41 10 -41 6 0 10 16 10 36 0 49 32 44 41 -6 5
-27 7 -29 8 -10 3 61 51 56 51 -5 0 -34 -29 -71 -37 -47 -3 6 -10 12 -16 12
-6 0 -3 -8 6 -17 23 -23 48 -8 61 36 8 26 13 31 40 30 17 0 39 -4 49 -8 17 -6
18 -8 3 -20 -38 -32 -59 -200 -32 -263 5 -11 2 -18 -11 -21 -12 -3 -10 -5 9
-6 14 0 34 -4 42 -7 20 -7 91 65 112 113 21 48 17 82 -20 148 l-33 60 -76 10
c-48 6 -82 17 -95 28 -12 11 -25 16 -31 13 -5 -4 -29 -2 -53 4 -24 6 -55 12
-69 14 -14 1 -30 5 -35 8 -5 3 -19 2 -32 -3z m-29 -119 l15 -40 -41 0 c-24 0
-48 -7 -60 -17 -20 -18 -20 -17 -13 16 16 87 72 110 99 41z m415 28 c16 -16
15 -29 0 -23 -36 13 -78 -66 -78 -145 0 -44 5 -56 30 -81 23 -23 26 -31 15
-36 -27 -10 -44 5 -56 49 -19 74 7 205 48 236 21 15 26 15 41 0z m30 -81 c6
-28 -5 -47 -23 -41 -9 4 -15 18 -15 36 0 23 4 29 17 26 10 -2 19 -11 21 -21z
m-336 -14 l46 -5 -19 -37 c-37 -72 -46 -189 -17 -243 11 -22 -1 -22 -122 -8
-109 14 -120 25 -120 122 0 81 15 138 43 169 21 22 27 22 189 2z m-224 -18 c2
-2 -2 -21 -9 -42 -7 -21 -13 -69 -13 -107 l0 -68 -65 6 c-37 4 -73 14 -83 23
-36 33 -34 130 4 179 21 25 24 26 92 19 39 -4 73 -8 74 -10z m329 -12 c2 -6
-6 -13 -18 -15 -37 -5 -64 -63 -64 -134 0 -65 20 -104 54 -104 14 0 13 -2 -1
-16 -38 -38 -68 10 -68 109 0 103 32 181 72 175 12 -2 23 -8 25 -15z m235 -48
c-12 -22 -27 -2 -18 22 5 12 10 13 17 6 7 -7 8 -17 1 -28z m-204 -49 c-2 -12
-10 -21 -18 -21 -16 0 -25 28 -16 52 9 23 38 -4 34 -31z"/>
        <path d="M2380 2985 c0 -8 5 -15 10 -15 6 0 10 7 10 15 0 8 -4 15 -10 15 -5 0
-10 -7 -10 -15z"/>
        <path d="M2296 2952 c-3 -6 -1 -14 5 -17 15 -10 25 3 12 16 -7 7 -13 7 -17 1z"/>
        <path d="M2360 2924 c19 -19 22 -27 11 -33 -8 -5 -9 -11 -3 -15 5 -3 15 0 21
8 8 10 6 20 -10 40 -11 14 -25 26 -31 26 -7 0 -1 -11 12 -26z"/>
        <path d="M2290 2860 c0 -5 8 -10 18 -10 10 0 23 -5 30 -12 9 -9 12 -9 12 0 0
12 -31 32 -49 32 -6 0 -11 -4 -11 -10z"/>
        <path d="M1470 2824 c-14 -3 -35 -7 -47 -9 -14 -3 -142 -157 -365 -437 -351
-442 -377 -482 -378 -564 0 -20 6 -34 16 -38 9 -3 144 -6 301 -6 l286 0 -7
-32 c-29 -146 -48 -269 -43 -275 14 -13 112 -14 137 -1 19 11 27 25 34 66 7
39 13 52 25 51 33 -3 41 2 57 34 l17 32 14 -32 c7 -18 19 -33 26 -33 15 0 37
20 37 33 0 5 -7 1 -16 -7 -21 -21 -32 -13 -40 29 -3 19 -9 35 -13 35 -3 0 -16
-18 -29 -40 -12 -22 -29 -40 -37 -40 -17 0 -20 26 -5 35 6 3 10 12 10 18 -1 7
-12 -1 -25 -18 -20 -24 -25 -26 -30 -13 -4 9 1 28 10 42 10 14 13 26 8 26 -5
0 -16 -11 -23 -25 -7 -14 -19 -25 -26 -25 -25 0 -25 21 1 51 14 18 24 34 21
37 -3 2 -17 -10 -32 -27 -14 -17 -30 -29 -35 -25 -14 8 -11 20 16 52 14 17 25
35 25 42 0 7 13 31 29 55 15 23 50 89 76 146 44 96 53 130 121 467 41 200 74
367 74 372 0 4 -6 10 -14 13 -21 8 -147 16 -176 11z m-82 -535 c-39 -200 -72
-365 -73 -366 -4 -6 -445 -9 -445 -4 0 10 582 743 586 739 2 -2 -29 -168 -68
-369z"/>
        <path d="M3620 2824 c-14 -3 -34 -7 -45 -9 -12 -2 -141 -157 -320 -383 l-300
-379 -198 -8 c-109 -4 -201 -5 -204 -2 -3 3 -13 77 -23 164 -10 87 -23 185
-28 218 -19 109 -23 165 -13 165 9 0 15 -29 27 -130 l6 -55 51 -16 52 -15 52
153 52 152 -51 17 c-44 14 -66 15 -187 5 -75 -6 -147 -11 -159 -11 -19 0 -21
-3 -12 -19 27 -52 -12 -111 -75 -111 -63 0 -98 28 -119 92 -5 16 -15 17 -83
12 -122 -10 -156 -29 -256 -146 l-87 -100 96 -104 c53 -57 100 -104 104 -104
10 0 141 167 168 214 12 23 22 46 22 53 0 7 5 13 10 13 28 0 -8 -78 -74 -160
l-54 -67 -1 -142 c0 -88 3 -139 9 -136 6 4 10 -25 10 -72 0 -100 24 -146 93
-181 44 -23 58 -25 173 -23 l126 1 -3 -287 -3 -288 24 0 c18 0 26 -6 28 -22 2
-13 5 -23 6 -23 1 0 60 12 131 26 71 14 137 23 147 21 17 -5 18 14 20 316 3
317 3 322 24 325 20 3 21 -4 38 -255 9 -142 20 -286 23 -320 l6 -63 33 0 c27
0 34 -4 34 -19 0 -11 4 -22 8 -25 4 -2 68 7 141 21 l133 26 -6 161 c-3 89 -9
230 -12 314 l-6 152 141 0 c131 0 141 -1 141 -19 0 -10 -11 -73 -25 -141 -14
-68 -25 -129 -25 -136 0 -19 65 -28 119 -18 l46 9 30 150 31 150 89 5 90 5 17
35 c24 46 24 97 1 103 -10 3 -49 4 -87 3 -40 -1 -70 3 -72 9 -2 5 34 201 81
435 47 233 85 430 85 436 0 7 -7 15 -16 18 -22 8 -144 15 -174 10z m-83 -552
l-72 -353 -169 -1 -169 0 -25 31 c-18 24 -22 37 -16 50 5 10 124 163 264 340
161 204 256 316 257 304 1 -10 -30 -177 -70 -371z m-877 315 c0 -26 -42 -137
-52 -137 -6 0 -7 8 -3 18 3 9 13 43 22 75 15 52 33 76 33 44z m-811 -236 c28
-33 51 -63 51 -67 0 -11 -76 64 -102 99 -36 49 -2 28 51 -32z m986 -374 c26
-22 27 -26 61 -367 36 -365 37 -387 28 -377 -3 3 -21 164 -40 358 -36 367 -39
380 -85 394 -19 6 -59 -10 -71 -29 -6 -8 -8 -7 -8 1 0 17 40 43 67 43 12 0 34
-10 48 -23z m-685 -73 c-12 -35 -72 -104 -91 -104 -5 0 8 17 29 38 25 22 45
54 53 81 7 24 15 39 17 33 2 -7 -2 -28 -8 -48z m420 -9 c59 -30 62 -49 50
-308 -5 -127 -10 -256 -10 -285 0 -29 -3 -51 -7 -49 -5 3 -3 126 3 274 11 300
8 326 -43 355 -30 18 -37 18 -165 3 -73 -8 -150 -17 -170 -20 -21 -3 -38 -1
-38 3 0 8 228 37 313 41 21 0 51 -6 67 -14z"/>
        <path d="M2243 2755 c32 -28 47 -32 47 -11 0 18 -6 21 -45 30 l-30 6 28 -25z"/>
        <path d="M1621 1846 c-34 -59 -38 -76 -17 -76 22 0 44 27 56 68 22 80 4 84
-39 8z"/>
        <path d="M2425 1033 c11 -2 44 -16 74 -31 43 -21 68 -26 123 -26 57 1 66 -1
57 -13 -7 -7 -10 -16 -7 -18 9 -9 29 22 23 36 -4 10 -26 14 -78 14 -54 1 -82
6 -114 23 -23 12 -55 21 -70 21 -20 -1 -22 -3 -8 -6z"/>
        <path d="M2900 1031 c14 -5 39 -15 57 -24 45 -24 114 -37 156 -30 59 9 43 18
-36 18 -57 0 -80 5 -108 23 -20 12 -49 22 -65 21 -29 -1 -29 -1 -4 -8z"/>
        <path d="M3146 961 c-16 -17 -16 -19 0 -25 17 -7 44 9 44 27 0 5 -10 2 -22 -9
-19 -16 -20 -16 -9 -1 19 24 8 31 -13 8z"/>
        <path d="M2704 952 c-18 -28 9 -47 32 -21 18 20 6 27 -13 8 -9 -9 -10 -7 -6
10 7 26 2 27 -13 3z"/>
        <path d="M3190 935 c-7 -9 -11 -18 -8 -20 3 -3 11 1 18 10 7 9 11 18 8 20 -3
3 -11 -1 -18 -10z"/>
        <path d="M2415 920 c3 -5 15 -10 26 -10 21 0 69 -42 69 -60 0 -5 -20 -10 -45
-10 -38 0 -45 -3 -45 -20 0 -19 7 -20 190 -20 183 0 190 1 190 20 0 19 -7 20
-133 20 -133 0 -134 0 -145 25 -6 14 -26 34 -44 45 -35 21 -74 27 -63 10z"/>
        <path d="M2885 920 c3 -5 14 -10 23 -10 16 0 72 -47 72 -62 0 -4 -22 -8 -50
-8 -43 0 -50 -3 -50 -20 0 -19 7 -20 195 -20 188 0 195 1 195 20 0 19 -7 20
-134 20 l-135 0 -17 29 c-9 15 -29 36 -44 45 -31 18 -65 22 -55 6z"/>
    </g>
</svg>
