<?xml version="1.0" encoding="UTF-8"?>
<svg version="1.1" viewBox="0 0 2048 1534" width="1280" height="1280"
    xmlns="http://www.w3.org/2000/svg">
    <path transform="translate(0)" d="m0 0h2048v1534h-2048z" fill="#FDFDFD"/>
    <path transform="translate(818,210)" d="m0 0h48l19 3 19 5 16 6 16 8 11 6 16 11 14 12 15 15 9 11 11 15 12 21 8 19 8 24 4 19 2 22 17 2 36 7 37 9 21 7 19 9 3 2h3l2-15h2v-11l2-23 2-6 8-16 10-22 10-17 9-15 11-12 11-14 19-19 11-9 16-13 16-10 18-8 8-3h10l20 6 21 9 32 15 23 11 98 49 23 10v2l-19 9-16 8-14 10-14 11-10 8-10 9-12 13-9 11-10 12-14 21-6 12-15 40-6 21-3 18-2 20v62h2l2 16 4 17 11 29 9 22 6 23 3 17-1 8-1 3v10l5 5h19l40-4 23-5 23-6 27-8 60-15 42-8 28-4 18-1 19 2 17 4 12 5 9 6 2 3h7l15 3 15 4 21 5 13 5 7 6 4 8v3l-6 3 8 1 3 4 1 4 7 8 6 10 1 4v9l-5 9-7 8-8 7-14 11-13 8-23 12-23 11-23 9-37 14-19 5-26 12-27 9-34 8-30 7-38 10-28 7 12 5 10 8 8 8 8 16 1 10-1 9-5 12-5 7-11 42-6 19-17 55-12 39-19 60-14 47-7 24-4 1-25-9-48-19-38-16-41-17-28-11-36-15-45-18-2-1 4 6 1 6-5 5-16 8-27 11-16 6-28 7-45 8-15 2-13 1h-55l-30-2-10-3-4-3-9-2-24-3-18-3-30-10-14-4-12-4-8-5 1-9 7-8h2l1-3-9 3-35 14-44 18-37 15-36 15-49 20-37 15-15 6h-4l-7-24-9-30-16-52-14-45-16-52-6-21-4-10-8-28-3-21-7-10-5-11-2-12 3-14 6-12 10-10 10-7 8-3 1-2-9-1-45-12-16-4-36-8-24-6-24-8-30-14-17-4-22-8-29-12-24-10-24-12-24-15-10-8-12-12-7-11-1-3v-9l6-12 6-8 2-5 6-3 9-1-4-2-3-6 1-5 5-6 16-6 16-4 17-3 4-4 2-1h18l10-8 8-4 15-4 26-3h13l23 2 28 5 41 9 44 11 44 13 27 6 22 3 11 1h23l-2-13v-20l9-27 7-16 5-15 12-28 8-17 10-16 10-13 9-11 13-13 10-5h3l-9-10-9-11-10-13-11-17-8-14-8-20-6-21-4-22-2-17v-36l4-18 8-27 6-15 8-16 10-16 11-14 24-24 10-8 17-12 23-12 21-8 23-7 20-4z" fill="#FEF8D9"/>
    <path transform="translate(818,210)" d="m0 0h48l19 3 19 5 16 6 16 8 11 6 16 11 14 12 15 15 9 11 11 15 12 21 8 19 8 24 4 19 1 11v24l-2 22-4 20-6 20-7 16-10 18-10 15-9 12-9 11-11 12-7 8-14 13-4 3 1 9 10 23 15 36 12 28 18 44 12 29 18 41 24 54 3 11v8l-2 10-5 7-10 6-3 1h-10l-15-3-6-4-6-9-16-36-13-30-15-36-13-30-15-36-17-40-15-38-8-17-4-2-23 5-19 3h-22l-41-7-26-6-16-6-23-12-16-11-10-8-12-11-9-11-10-13-11-17-8-14-8-20-6-21-4-22-2-17v-36l4-18 8-27 6-15 8-16 10-16 11-14 24-24 10-8 17-12 23-12 21-8 23-7 20-4z" fill="#C6DFA4"/>
    <path transform="translate(1719,716)" d="m0 0 17 1 21 4 13 5 10 6 3 4h7l15 3 15 4 21 5 13 5 7 6 4 8v3l-6 3 8 1 3 4 1 4 7 8 6 10 1 4v9l-5 9-7 8-8 7-14 11-13 8-23 12-23 11-23 9-37 14-19 5-26 12-27 9-34 8-30 7-38 10-28 7 12 5 10 8 8 8 8 16 1 10-1 9-5 12-7 9-8 7-20 8-6 1h-12l-15-3-40-12-117-36-51-15-38-12-47-14-21-6-11-1 2-9 8-17 13-23 12-20 14-20 13-18 8-11 14-17 13-13 11-9 14-10 14-8 20-8 18-4 12-2 22-1 16 1 11 2 18 1 6 1h17l40-4 23-3 33-8 34-10 60-15 42-8 28-4z" fill="#FD9708"/>
    <path transform="translate(323,717)" d="m0 0h13l23 2 28 5 41 9 44 11 44 13 27 6 22 3 32 3h21l10-2h7 3l17-2h38l23 5 18 6 20 9 11 7 11 9 15 14 9 10 14 19 13 18 10 15 14 22 17 29 10 19-1 4-16 5-44 13-51 15-28 9-44 13-64 21-33 10-45 13-9 2h-17l-21-6-12-6-7-10-5-11-2-12 3-14 6-12 10-10 10-7 8-3 1-2-9-1-45-12-16-4-36-8-24-6-24-8-30-14-17-4-22-8-29-12-24-10-24-12-24-15-10-8-12-12-7-11-1-3v-9l6-12 6-8 2-5 6-3 9-1-4-2-3-6 1-5 5-6 16-6 16-4 17-3 4-4 2-1h18l10-8 8-4 15-4z" fill="#FE9707"/>
    <path transform="translate(878,949)" d="m0 0 3 4 9 24 10 28 9 38 6 38 5 46 1 16v13l-2 21-3 7-8 5-25 11-65 26-91 37-46 19-49 20-37 15-15 6h-4l-7-24-9-30-16-52-14-45-16-52-6-21-4-10-8-28-2-15v-5l24 8 8 2h17l27-7 40-12 38-12 49-16 44-13 35-11 44-13 41-12 16-5z" fill="#AC97D7"/>
    <path transform="translate(1169,953)" d="m0 0h7l20 5 42 13 40 12 29 9 41 12 100 31 51 15 11 2h12l12-3 15-7 8-6-4 18-7 26-5 16-17 55-12 39-19 60-14 47-7 24-4 1-25-9-48-19-38-16-41-17-28-11-36-15-45-18-46-19-23-10-9-5-1-8v-50l3-35 4-28 3-15 8-30 12-36z" fill="#AC97D7"/>
    <path transform="translate(1337,230)" d="m0 0h10l20 6 21 9 32 15 23 11 98 49 23 10v2l-19 9-16 8-14 10-14 11-10 8-10 9-12 13-9 11-10 12-14 21-6 12-15 40-6 21-3 18-2 20v48l1 14v11h-7l-12-9-11-8-11-5-16-9-5-3-13-4-14-5-3-2-7-2-10-4-24-10-17-9-21-10-19-10-10-4-10-6-8-9-4-8-2-7v-40l2-17 5-53 2-6 8-16 10-22 10-17 9-15 11-12 11-14 19-19 11-9 16-13 16-10 18-8z" fill="#FFE8B0"/>
    <path transform="translate(829,275)" d="m0 0h36l14 2 16 5 16 8 12 7 12 9 12 11 9 10 9 14 8 15 7 19 3 19v33l-3 21-7 21-8 17-12 18-9 11-12 12-12 9-19 11-16 7-17 5-19 3h-25l-23-4-16-4-20-8-14-8-14-10-12-12-10-11-10-16-10-21-5-19-2-11v-31l4-22 6-17 8-16 8-12 12-14 11-11 12-9 21-13 16-7 16-6 18-4z" fill="#FDFDFD"/>
    <path transform="translate(1344,767)" d="m0 0h17l1 3h15l13 2 1 3 7 1v2h2l3 4v2h4l-1 4-2 2-12 3-8 4-6 2-2 4-7 8 1 6-5 1v2h-5l1 7 3 1 4 11 2 1 9 1 4 4 5 10-2 8h3l2 5 1 4 3 6 7 6 1 3h-2v3l-8 1 1 3 5 5 4 5-1 5 5 2 18-2 7 5-1 4-4 2 5 10h3v3l7 1 23 4 31 2h98l-2 2-5 2h-3v2l-26 7-28 7 12 5 10 8 8 8 8 16 1 10-1 9-5 12-7 9-8 7-20 8-6 1h-12l-15-3-40-12-117-36-51-15-38-12-47-14-21-6-11-1 2-9 8-17 13-23 12-20 14-20 13-18 8-11 14-17 13-13 11-9 14-10 14-8 20-8z" fill="#FE7F04"/>
    <path transform="translate(713,776)" d="m0 0h10l12 3 6 5 5 2h7l5 3 7 3 11 9 15 14 9 10 14 19 13 18 10 15 14 22 17 29 10 19-1 4-16 5-44 13-51 15-28 9-44 13-64 21-33 10-45 13-9 2h-17l-21-6-12-6-7-10-5-11-2-12 3-14 6-12 10-10 10-7 8-3 1-2-9-1-45-12-2-1v-2l-9-2-4-3 23 1 13 1 30 1h15l37-2 19-3 26-6 5 1 15 1v-13l-2-7h3l3 4 2-5 1-16 4-12-1-3 3-1v-2l2-1 2-4h2v-3h3l2-4 1-3 3-3 3-1 3-3 3-9h2l1-5h2v-8l1-3h2l1-4 5-2 1-3-7 1-8 4h-3l3-3 6-3 4-5 4-2-2-10 3-1 12-1 1-1-1-7-3-3-9-3 4-4 9-3 11-1z" fill="#FD7F04"/>
    <path transform="translate(655,765)" d="m0 0h38l23 5 18 6 20 9 7 4-3 1-5-3h-7l-8-4-3-3-12-3h-10l-6 3-15 2-8 4 3 2 6 2 4 5v5l-2 2-15 1 3 7-1 4-5 3-4 5-7 2 1 2 4-3 5-2h7l-1 4-5 1-1 4h-2v9l-1 2h-2l-1 5h-2l-2 9-3 1-1 3h-3l-1 3h-2l-1 4-2 3h-3v3l-2 1-2 4h-2v2l-2 2 1 4-3 5-1 5-1 18-3 4-3-3v-2h-3l3 7v11l-1 2h-15l-2-1v-4l-43 7-26 3-14 1h-51l-46-4-19-3-25-6-30-10-17-8-9-8-8-14-4-13 1-12 7-11 8-6 9-3 20-3 17-1 50-1 20-2 25-4 30-8 25-9 27-13 29-13 15-7 20-7 8-3v-2l3 1 10-2z" fill="#FE9707"/>
    <path transform="translate(1370,764)" d="m0 0 24 1 16 3 8 3 15 4 21 8 25 12 19 10 20 9 19 7 25 7 22 4 19 3 11 1 54 1 21 2 16 4 11 4 8 9 2 5v10l-4 15-7 11-7 7-17 9-26 10-32 8-32 6-7 1h-70l-35-2-37-4-8-1h-12l-3-4-3-8 5-2-1-4-5-3-13 1-5 1-5-3-1-7-5-5v-2l-3-1v-3l6-2 2 1 1-4-9-9-3-6-1-8h-3l1-8-6-12-7-2h-5l-3-4-3-9-2-1-1-7h5v-2l4-1-1-7h2l2-4 8-8 12-6 12-3 2-4-3-1-3-4v-2h-2v-2l-7-1-1-2-15-2h-11l-3-3-11-1v-1z" fill="#FE9707"/>
    <path transform="translate(878,949)" d="m0 0 3 4 9 24 10 28 2 10-8 3-26 7-63 20-37 11-42 13-31 9-28 9-26 8-29 7-20 3-14 1h-19l-28-2-18-4-6-3-3-8-8-28-2-15v-5l24 8 8 2h17l27-7 40-12 38-12 49-16 44-13 35-11 44-13 41-12 16-5z" fill="#AC97D7"/>
    <path transform="translate(1169,953)" d="m0 0h7l20 5 42 13 40 12 29 9 41 12 100 31 51 15 11 2h12l12-3 15-7 8-6-4 18-7 26-5 16-5 4-20 4-25 2h-29l-19-2-26-6-40-12-48-15-57-18-40-12-65-20-13-3h-7l1-7 10-30z" fill="#AC97D7"/>
    <path transform="translate(1860,780)" d="m0 0h9l9 10 6 10 1 4v9l-5 9-7 8-8 7-14 11-13 8-23 12-23 11-23 9-37 14-17 4 4-6 7-11 4-9v-23l-4-7-5-5-12-6-18-4-22-3-49-1-22-2-34-6-25-7-14-5-21-9-9-4 3-1 24 10 30 10 24 3 12 3 18 2h10l12-3 18-3 26-8 36-10 38-8 48-7 39-4z" fill="#FDA30A"/>
    <path transform="translate(655,765)" d="m0 0h38l23 5 18 6 20 9 7 4-3 1-5-3h-7l-8-4-3-3-12-3h-10l-6 3-15 2-8 4 3 2 6 2 4 5v5l-2 2-15 1 3 7-1 4-5 3-4 5-7 2 1 2 4-3 5-2h7l-1 4-5 1-1 4h-2v9l-1 2h-2l-1 5h-2l-2 9-3 1-1 3h-3l-1 3h-2l-1 4-2 3h-3v3l-2 1-2 4h-2v2l-2 2 1 4-3 5-1 5-1 18-3 4-3-3v-2h-3l3 7v11l-1 2h-15l-2-1v-5l-3-2-4-1-20 3-8 2-26 3h-13v-2h-2l2-5 3-6 3-5 5-5 2-1 9 1 13-3-8-6 1-12-8-7v-9l4-6 4-10 2-9v-6l3-6 9-4h5l1-5 5-10v-2l-6-3-1-5-16 3-8 5-20 9-13 4h-11l3-6 4-2-2-2 15-6 36-17 16-7 15-7 20-7 8-3v-2l3 1 10-2z" fill="#FE8C06"/>
    <path transform="translate(1370,764)" d="m0 0 24 1 16 3 8 3 15 4 21 8 25 12 19 10 7 3-2 1 1 7-3 1h-12l-11 8-2 4 1 6 1 9 2 5 1 7 5 17 6 13 1 8 5 5v5l-4 2 1 7 4 2 4 1 4-1 6 5 8 4 6 2 1-2 5 2 2 3-5 3-6 1h-11v-1l-18-1h-14l-9 1-15-2-8-1v2h-17l-3-4-3-8 5-2-1-4-5-3-13 1-5 1-5-3-1-7-5-5v-2l-3-1v-3l6-2 2 1 1-4-9-9-3-6-1-8h-3l1-8-6-12-7-2h-5l-3-4-3-9-2-1-1-7h5v-2l4-1-1-7h2l2-4 8-8 12-6 12-3 2-4-3-1-3-4v-2h-2v-2l-7-1-1-2-15-2h-11l-3-3-11-1v-1z" fill="#FE8C06"/>
    <path transform="translate(176,778)" d="m0 0 13 1 58 6 54 8 42 9 27 8 15 5 20 6 10 1 8 3 11 2v2l-37 1-42 4-14 3-9 4-6 4-7 11-2 6v14l4 10 8 14 3 5-16-3-22-8-29-12-24-10-24-12-24-15-10-8-12-12-7-11-1-3v-9l6-12 6-8z" fill="#FDA30A"/>
    <path transform="translate(1171,949)" d="m0 0 8 1 41 11 45 14 41 13 33 10 7 2 7-1 14-25 3-3 16 1 18 1h18l22-1 44-5 36-6h9l12 6 12 11 6 8 5 11 1 10-1 9-5 12-7 9-8 7-20 8-6 1h-12l-15-3-40-12-117-36-51-15-38-12-47-14-21-6-11-1z" fill="#091E2F"/>
    <path transform="translate(872,949)" d="m0 0h6l-1 2-16 5-44 13-51 15-28 9-44 13-64 21-33 10-45 13-9 2h-17l-21-6-12-6-7-10-5-11-2-12 3-14 6-12 10-10 10-7 8-3h9l33 6 47 5 14 1h32l27-1 13 18 5 10v2l18-6 68-21 47-14z" fill="#091E2F"/>
    <path transform="translate(367,837)" d="m0 0h33v2h12l17 4 12 7v2l-5-1-6 13 1 7 5 2v2l4 1 2 3v5h2l6 7v13h2l2 7 3 3 1 3-1 1 1 5 5 3h3v-5h2v-2l2 1-1 3 7 6 21 7v1h-31l-40-4-29-6-29-9-17-7-9-5-8-7-8-14-4-13 1-12 7-11 8-6 9-3z" fill="#FEA309"/>
    <path transform="translate(240,741)" d="m0 0 21 2 59 10 39 9 32 9 36 12 17 7 1 2h-10l-5 1v1h-6l-8-4-9-1v2h-6l-5 1v-2l-12 1-3 1 4 6 8 4 4 1v2l12 3 5 4 1 9-20-8-28-9-34-9-33-7-55-8-47-5-10-4-3-6 1-5 5-6 16-6 16-4z" fill="#FDA209"/>
    <path transform="translate(1807,740)" d="m0 0 30 7 15 5 8 6 5 9v3l-10 4v1l-62 6-41 6-35 7-30 8-39 12-14 5-7 2 2-7 16-11 13-5 1-1-2-2 9-7 5-5 14-9 5-2 12-2 10-3v-2l6-3 13-1 6-2 10-2 3-1h-6l-7 1-4 2-8 1h-10l-15 3-11 3h-4l2-4 33-8 54-9 15-3z" fill="#FDA40D"/>
    <path transform="translate(1579,833)" d="m0 0h12l12 2 11 1 54 1 21 2 16 4 11 4 8 9 2 5v10l-4 15-7 11-7 7-17 9-26 10-32 8-21 4h-12l3-3 20-6 16-7 3-2-3-2 7-2 6-2 3-6 1-7 4-6 5-5 6-2v-2l8-2 1-4-1-4 2-4-5 5-7 2-2 4-3 2-3-1 4-2v-2l2-1 2-5 1-3-5 3h-3l-1 2-4 2-5-1-2-2v-4l-2-1 3-1v-2l-5-1-1 5-3 1-2-1-1-5-2-1v-2h-15l-13-2-16-6-8-4-2-4 2-5h-5l1-4z" fill="#FEA209"/>
    <path transform="translate(830,270)" d="m0 0h32l20 3 21 7 17 9 15 10 11 9 12 12 10 14 9 16 7 17 4 20 1 9v26l-2 18-7 25-9 21-12 20-12 14-8 8-15 11-21 13-15 6-21 6-19 3h-23l-25-5-21-6-19-8-13-7-11-8-14-12-11-13-9-14-8-16-7-19-4-18v-35l4-21 6-18 11-21 9-13 11-12 8-8 14-11 15-9 15-8 23-9 22-5zm-1 5-14 2-19 5-24 10-17 10-14 10-12 11-7 7-8 10-10 15-8 18-5 16-3 18v31l5 24 7 17 9 17 8 11 9 10 12 12 15 10 14 8 18 7 26 6 13 2h25l19-3 20-6 19-9 19-12 15-14 10-11 12-18 8-16 6-15 4-15 2-16v-33l-3-19-7-19-10-19-9-12-12-13-13-11-16-10-15-8-15-5-9-2-9-1z" fill="#04081B"/>
    <path transform="translate(1698,718)" d="m0 0 4 2-4 2-24 4-8 3-16 5-15 5-3 3-15 4-15 5-11 4-12 4-13 6-9 4-9 6-7 6v6l4 1h6l5 5-5 4 10 5 3 1h7l1 1v5l-2 1h-9l-1-4-11-1h-4l-2 1-11-4-14-3-20-7-14-5-15-7-11-2-5-3v-2l-4-2 3-2 2-1 49-5 23-5 23-6 27-8 60-15 42-8z" fill="#FE8C06"/>
    <path transform="translate(628,767)" d="m0 0h5v3l-8 3-20 7-24 11-30 14-22 10-27 9-28 7-27 4-13 1-50 1-26 2-18 4-9 6-7 11-1 12 4 13 6 11 4 5 8 6 17 8 28 9 30 7 24 3 36 3h51l33-3 45-7h5v3l-33 8-15 2-37 2h-15l-30-1-27-2h-7l11 4v1l-9-1-41-9-24-6-24-8-30-14-8-11-8-15-1-4v-14l4-10 7-9 11-6 10-3 26-3 15-1 51-1 27-3 27-6 30-10 16-7 56-28 13-4z" fill="#040418"/>
    <path transform="translate(1410,768)" d="m0 0h13l21 5 16 7 16 8 23 11 28 12 25 8 22 5 31 5 15 1 49 1 27 4 16 4 11 6 7 9 1 3v23l-4 9-7 11-5 6-28 13-27 9-34 8-30 7-8 2-4-1 8-3h-96l-31-2-23-4-7-2v-3h9l33 4 24 2 23 1h70l29-5 30-7 18-5 24-10 13-7 9-10 5-10 3-12v-10l-4-8-7-6-19-6-13-2-14-1-54-1-16-2-26-4-25-6-24-8-18-8-46-23-29-11-18-5z" fill="#060618"/>
    <path transform="translate(690,759)" d="m0 0 13 1 22 4 8 3 11 3v2l18 7 19 13 13 12 10 10 9 13 5 9 12 20 11 13 11 12 10 10 4 8v6l5-1-7-15 1-2 5 6 8 16 4 10 4 8v6l4 6 1 4 3-1 2 8v10l-3 8 1 4 3 6v11l-4-1-12-33-10-20-14-24-10-17-13-20-13-19-14-19-10-13-12-13-12-11-15-11-19-9-19-7-22-5-15-3v-3z" fill="#FEFCE4"/>
    <path transform="translate(1436,934)" d="m0 0 10 1 19 3 31 2h98l-2 2-5 2h-3v2l-26 7-40 10-37 6-37 4-22 1h-18l-28-2h-6l-6 9-11 19-7 1v-3l5-4 11-21h2v-2l7-3 26 1 13 2 9-1 3-1 18-1 8-2 21-2 11-2 4-4-2-4v-3h-7l-14-6-13-3-9-4-3-2z" fill="#FE8B05"/>
    <path transform="translate(872,949)" d="m0 0h6l-1 2-16 5-44 13-51 15-28 9-44 13-49 16-2-2 12-5 8-4 3-4 6-9 5-9 4-1-4-4-21-2-9-2-50-1-2-1-15-1-13-3-10-2-9 1-7 2h-9l-6-4-5-4-5 1-9 1h-3l-4 2 5-5 7-4 8-1 10 1 36 6 39 4 14 1h32l27-1 13 18 5 10v2l18-6 68-21 47-14z" fill="#040418"/>
    <path transform="translate(1171,949)" d="m0 0 8 1 41 11 45 14 41 13 33 10 7 2 7-1 14-25 3-3 16 1 18 1h18l22-1 44-5 36-6h9l12 6 2 3-15-2-24 6h-23l-14 3-38 1-13 1h-34l-10-1-4 2-2 6-1 5v9l4 8 32 12v2l-12-3-48-15-58-17-38-12-47-14-21-6-11-1z" fill="#040418"/>
    <path transform="translate(878,949)" d="m0 0 3 4v4h-2l-2 5-5 3-22 4-12 4-3 3-11 4-11 2-7 3-16 4-1 1-14 2-26 7-20 6-17 5-7 3-8 2-8 1-20 4-3 1-7-2-1-2 42-14 31-9 35-11 54-16 41-12 16-5z" fill="#9B90CF"/>
    <path transform="translate(292,721)" d="m0 0h5l7 3h6l2 2 3 2-1 1 17 5 9 1 10 4 9 3 6 3 11 4 16 8 12 5 8 4v2l8 2 12 7v3l-33-12-36-10-38-9-39-7-25-4-15-1v-1h18l10-8 8-4z" fill="#FDA20A"/>
    <path transform="translate(1758,722)" d="m0 0 10 3 11 6 4 5h7l-3 3-9 2-33 4-38 7-38 10-35 11-31 11-11 5-4-1 6-5 20-9 14-5 19-8 21-8 16-4 1-3 10-5 11-3 14-3 14-7 9-3 12-1z" fill="#FEA109"/>
    <path transform="translate(1171,953)" d="m0 0 10 1 21 6 76 23 29 9 41 12 51 16-1 4-19-5-7-1-3-1-17-2-5 1-15-3-25-9-9-4-16-7-8-4h-8l-3-2-7-2-1-2-11-1-14-7-9-3-11-3-10-4-16-4-9-1-1-4-4-2z" fill="#9B90D0"/>
    <path transform="translate(900,1010)" d="m0 0 2 3-1 3-36 10-70 22-34 10-29 9-30 9-55 17-17 5-23 5-15 2-14 1h-19l-28-2-18-4-6-3-1-4 11 3 16 3 18 1 3 1h27l26-3 20-4 27-8 48-15 63-19 58-18 39-12 36-11z" fill="#040418"/>
    <path transform="translate(1150,1006)" d="m0 0 1 3-1 3 11 2 34 11 66 20 52 16 50 16 53 16 28 6 7 1 31 1 24-1 21-3 15-5-2 5-4 3-20 4-25 2h-29l-19-2-26-6-40-12-48-15-57-18-40-12-65-20-13-3h-7l1-7z" fill="#040519"/>
    <path transform="translate(1410,768)" d="m0 0h13l21 5 16 7 16 8 23 11 28 12 25 8 22 5 31 5 15 1 49 1 16 2v1l-17 1-12 2h-42l-16-2-26-4-25-6-24-8-18-8-46-23-29-11-18-5z" fill="#040519"/>
    <path transform="translate(1855,774)" d="m0 0h12l3 4v2l-57 5-33 4-40 6-40 9-28 8-26 8-7 1h-9l4-3 14-5 39-12 30-8 35-7 41-6z" fill="#040418"/>
    <path transform="translate(720,325)" d="m0 0h2l1 1h2l-2 4-8 10-10 15-8 18-5 16-3 18v31l5 24 7 17 9 17 8 11 9 10 1 3 4 2 10 9 19 12 9 4v3l6 2v2l-10-3-19-10-11-8-14-12-11-13-9-14-8-16-7-19-4-18v-35l4-21 6-18 11-21 9-13z" fill="#040619"/>
    <path transform="translate(183,774)" d="m0 0h15l54 6 48 7 41 9 36 10 29 10 7 4v2h-8l-33-10-15-5-23-6-39-8-48-7-58-6-12-1 1-3z" fill="#040519"/>
    <path transform="translate(979,448)" d="m0 0 4 1-1 10-7 18-8 16-9 14-11 13-8 8-15 11-21 13-15 6-21 6-19 3h-23l-25-5-21-6-3-2v-2l-6-2v-2l10 3 12 4 25 5 7 1h25l19-3 20-6 19-9 19-12 15-14 9-10 12-18 8-16 6-15z" fill="#040519"/>
    <path transform="translate(244,737)" d="m0 0h17l54 9 36 8 31 8 23 7 29 11 25 9 1 3-5 1-14-3-25-10-38-12-48-12-34-6-35-6-17-2-3-1 1-3z" fill="#04061A"/>
    <path transform="translate(1788,737)" d="m0 0 14 1 5 2v1l-23 3-68 12-40 10-33 10-23 8-24 8h-9l2-3 25-10 38-13 35-10 30-7 35-6 32-4z" fill="#040418"/>
    <path transform="translate(634,639)" d="m0 0 1 3-10 30-3 8-5 16-9 24-4 15v10l1 5 4 2v2l3 1 3 5h52l4 4-33 4-3 1v-2l-17 3h-21l-11-1v-1l13-1-2-13v-20l9-27 7-16 5-15 12-28z" fill="#FEFBE3"/>
    <path transform="translate(878,1201)" d="m0 0 2 1-5 3 4 1-4 3v3l-5 5-7 10-1 2 1 14 12 5 15 8-3 1-22-7-14-4-12-4-8-5 1-9 7-8h2l1-3 6-4z" fill="#FEFDE6"/>
    <path transform="translate(1184,1026)" d="m0 0 9 2 58 18 40 12 66 21 46 14 26 7 20 4 13 1h29l25-2 20-4 4-2-3 9-4-1-9 3-14 1-2 1-10-1-30-1-23-2-13-2-21-5-10-4-10-2-13-4-20-6-21-6-23-7-13-4-8-3-11-4-25-7-8-2-18-6-16-5-18-6-8-3z" fill="#9B90D0"/>
    <path transform="translate(921,295)" d="m0 0 8 4h3 3l11 9 12 12 10 14 9 16 7 17 4 20 1 9v26l-2 18-3 12-1-3-3-1 1-11 1-10v-33l-3-19-7-19-10-19-9-12-12-13-12-10-8-5z" fill="#040418"/>
    <path transform="translate(1408,639)" d="m0 0 2 4 7 20 8 21 7 17 6 23 3 17-1 8-1 3v10l5 5 10 1v1l-8 1h-17l-6-1-18-1-23-4-2-2 3-2h33l8-2 9-11 2-5v-15l-5-21-4-12-7-16-10-29z" fill="#FEF9DF"/>
    <path transform="translate(494,949)" d="m0 0h7l12 4 22 2h8l11 6 6 3 29 3 22 1 12 2 3 3h-21l-47-5-33-6h-6l-2-1v-2l-9-1-14-4-4-4z" fill="#FE8B06"/>
    <path transform="translate(1552,940)" d="m0 0h42l-2 2-5 2h-3v2l-26 7-8 1 2-3-5-2h-16l-13-2-4-2v-2l-16-1v-1z" fill="#F87C04"/>
    <path transform="translate(1161,969)" d="m0 0 1 4-11 31-9 31-4 15-4 24h-2l-1-16 2-17 4-15 2-15 8-17 4-9 5-9z" fill="#FCFBE2"/>
    <path transform="translate(872,949)" d="m0 0h6l-1 2-16 5-44 13-51 15-28 9-34 10h-4l1-3 36-11 45-14 47-14z" fill="#04071A"/>
    <path transform="translate(587,769)" d="m0 0 27 1v1l-15 4-10 4-10 6-50 24-22 8h-4l1-3 15-6 17-9 21-9 24-12 11-7-5-1z" fill="#FC9E10"/>
    <path transform="translate(729,772)" d="m0 0 11 2 23 11 10 8 8 6 12 11 7 7 7 10 9 15v5l-4-4-14-19-14-15-11-10-15-11-19-9-10-4z" fill="#FEFBF5"/>
    <path transform="translate(183,774)" d="m0 0h15l37 4 5 1v2l28 4 14 4v1l-14-1-29-4-50-5-12-1 1-3z" fill="#08192B"/>
    <path transform="translate(459,741)" d="m0 0 16 4 41 12 36 8-2 1v2h-24l-11-4-12-3v-2l-7-1-10-8-1 2-8-3-9-2-9-4z" fill="#FE8B05"/>
    <path transform="translate(770,548)" d="m0 0 10 3 12 4 25 5 7 1 34 1-2 4-8 1h-23l-25-5-21-6-3-2v-2l-6-2z" fill="#081628"/>
    <path transform="translate(796,280)" d="m0 0h6l-3 2-20 8-16 8-21 14-13 12-4 3-2-1v2l-2-1 1-4 10-10 14-11 15-9 7-4 7-1 9-4 6-3z" fill="#040619"/>
    <path transform="translate(1541,1092)" d="m0 0 1 2-4 5-16 4-16 2-15 1h-29l-13-1v-1l17-1h-14l1-2h29l24-1 21-3 12-4z" fill="#040418"/>
    <path transform="translate(609,927)" d="m0 0h5v3l-33 8-15 2h-29l-11-1v-1l5-1 33-3z" fill="#091A2C"/>
    <path transform="translate(1668,834)" d="m0 0h23l18 4 14 7 3 5h-6l-12-5-13-4-13-2-26-2v-1z" fill="#08192B"/>
    <path transform="translate(1435,930)" d="m0 0h9l33 4 24 2 23 1 7 1v1h-19l-24-1-13-1 9 2v1l-19-1-23-4-7-2z" fill="#040418"/>
    <path transform="translate(244,737)" d="m0 0h17l49 8 1 2h-8l-18-2-11 1-30-4-3-1 1-3z" fill="#040418"/>
    <path transform="translate(894,618)" d="m0 0 4 2 4 8 2 8 1 5-9 1-6-7-5-1-2-6 2-3 4-2 2-4z" fill="#FFFCE5"/>
    <path transform="translate(783,973)" d="m0 0h3v2l-36 11-32 10-20 6h-2l-5-10 1-3 4 5 2 4 3-1 2-2 7-2 10-2 12-4 12-3 7-2z" fill="#FE8905"/>
    <path transform="translate(834,871)" d="m0 0 6 4 9 12 7 10 5 16 8 9 4 8v6l-4-4-11-20-13-21-11-17z" fill="#FEFBF5"/>
    <path transform="translate(979,448)" d="m0 0 4 1-1 10-7 18-8 16-5 5h-2l-2 2v-5l8-13 9-21z" fill="#04071B"/>
    <path transform="translate(1433,777)" d="m0 0 8 1 20 8 30 15 1 3-8-1-16-7-12-5-4-3-9-4-10-6z" fill="#FE9407"/>
    <path transform="translate(494,1041)" d="m0 0 24 8 8 2h17l20-5 3 1-4 4-5-1-18 5-16 1h-8l-10-5-11-5z" fill="#9B90D0"/>
    <path transform="translate(1855,774)" d="m0 0h12l3 4v2l-23 2h-21l1-4 5-2z" fill="#04081B"/>
    <path transform="translate(720,325)" d="m0 0h2l1 1h2l-2 4-8 10-10 15-8 16-2-2-2 1 1-5 10-19 9-13z" fill="#040418"/>
    <path transform="translate(500,815)" d="m0 0m-1 1 3 2-8 3-27 6-27 3h-43v-1h37v-2l28-3 27-6z" fill="#FE980A"/>
    <path transform="translate(1181,923)" d="m0 0 1 4-8 15-3 10-4 9-2-2-1-12 4-9 2-4 4-6z" fill="#FEFAE0"/>
    <path transform="translate(634,1096)" d="m0 0 3 1-10 4-28 6-21 1h-19l-28-3v-1l28 1h19l21-2 18-3z" fill="#9B90D0"/>
    <path transform="translate(1181,1206)" d="m0 0 9 3 15 6 4 7 1 6-5 5h-3l1-1v-5l-8-9-5-5-9-6z" fill="#FEFDE7"/>
    <path transform="translate(1538,951)" d="m0 0 2 1v5l-16 5-17 3h-9l3-2 14-4 11-5z" fill="#FEA009"/>
    <path transform="translate(1415,1093)" d="m0 0 29 6 9 2v1h13l1 2h-24l-26-6-5-2z" fill="#05081C"/>
    <path transform="translate(609,927)" d="m0 0h5v3l-33 8h-3l-1-2-6-1v-2z" fill="#04061A"/>
    <path transform="translate(1366,970)" d="m0 0h4l-2 4-14 25-3 2h-5v-3l5-4 11-21h2v-2z" fill="#FF8C06"/>
    <path transform="translate(891,280)" d="m0 0 10 1 12 6 10 4 9 6 1 3-3 1-8-5-5-2-19-10-7-3z" fill="#08192B"/>
    <path transform="translate(690,573)" d="m0 0 4 1-2 4-14 8-11 9-7 6 2-4 9-10 9-9z" fill="#FFFDE6"/>
    <path transform="translate(1495,797)" d="m0 0 6 1 26 11 31 10 13 3v1h-7l-25-7-14-5-21-9-9-4z" fill="#E2CAA7"/>
    <path transform="translate(285,744)" d="m0 0 26 3 5 2v2l3 1v1l-10-1-29-5-2-2z" fill="#091B2C"/>
    <path transform="translate(647,968)" d="m0 0 15 1h12l2 2-8 2h-30l3-4z" fill="#FE8A05"/>
    <path transform="translate(979,448)" d="m0 0 4 1-1 10-5 14h-5v2h-2l3-9z" fill="#081829"/>
    <path transform="translate(610,777)" d="m0 0h5l-3 2-12 6-14 8-10 4-4-1v-2l18-8 15-7z" fill="#FE9307"/>
    <path transform="translate(921,295)" d="m0 0 8 4h3 3l11 9 7 7-2 3-1-2h-3l-4-7-4-1-3-3h-3l-12-8z" fill="#060E20"/>
    <path transform="translate(183,774)" d="m0 0h15l1 2 3 1v2l5 1v1l-18-1-12-1 1-3z" fill="#040519"/>
    <path transform="translate(1468,936)" d="m0 0h12l8 1 44 2v1h-48l-16-3z" fill="#0A1F30"/>
    <path transform="translate(445,911)" d="m0 0 1 3 2 3v3h2l2 3 5 2-4 1-9-1-5-4 1-5h2l1-4z" fill="#FE9808"/>
    <path transform="translate(898,1016)" d="m0 0 3 1-7 5-10 2-9 1-5 1h-5l3-2 26-7z" fill="#9B90D0"/>
    <path transform="translate(1485,1047)" d="m0 0 25 5h12l12-2-4 3-9 2h-14l-15-4-7-3z" fill="#9B90D0"/>
    <path transform="translate(869,912)" d="m0 0h5l5 4 3 10-6 1z" fill="#FFF9DA"/>
    <path transform="translate(796,280)" d="m0 0h6l-3 2-20 8-9 4h-2l2-4 12-5 8-4z" fill="#091D2E"/>
    <path transform="translate(858,910)" d="m0 0h2l3 5 6 7 4 8v6l-4-4-11-20z" fill="#FEFAF1"/>
    <path transform="translate(770,288)" d="m0 0m-2 1h2l-2 6-14 9-3-1 3-4h2l2-4z" fill="#04071B"/>
    <path transform="translate(1541,1092)" d="m0 0 1 2-4 5-11 3-10-1v-1l8-2z" fill="#04071B"/>
    <path transform="translate(783,973)" d="m0 0h3v2l-36 11h-2v-2l7-3z" fill="#FE8705"/>
    <path transform="translate(1046,407)" d="m0 0 17 2 21 4v1l-11-1-23-3-2 4-2 1z" fill="#FFFDE6"/>
    <path transform="translate(1368,970)" d="m0 0h2l-2 4-14 25h-2l2-6 10-19z" fill="#FE9C08"/>
    <path transform="translate(1722,860)" d="m0 0 4 1v10l-2-4-3 7h-3l-1-4 1-5-1-4z" fill="#FE9407"/>
    <path transform="translate(1446,769)" d="m0 0h6l-2 2 6 5 2 1v2l-9-3-16-5v-1z" fill="#FE9D11"/>
    <path transform="translate(1343,796)" d="m0 0h7l3 2-9 6-6 1 1-4v-3h2z" fill="#FF8C06"/>
    <path transform="translate(449,786)" d="m0 0 10 3 1 3-5 1-14-3-2-2 9-1z" fill="#04061A"/>
    <path transform="translate(1547,970)" d="m0 0 4 2 9 9 8 16-1 4-7-14-8-11z" fill="#040418"/>
    <path transform="translate(879,555)" d="m0 0m-3 1 3 1-3 2-8 1v2l-8 1 2 2h-5v-2l-8-1v-1l19-3z" fill="#040418"/>
    <path transform="translate(1495,797)" d="m0 0 6 1 26 11 3 1v2l-5-1-21-9-9-4z" fill="#C9BAC7"/>
    <path transform="translate(508,1098)" d="m0 0 17 4 6 1v1h-11l-10 1z" fill="#9C90D0"/>
    <path transform="translate(1149 1e3)" d="m0 0h1l-1 9-3 8h-2l-1-2v-6z" fill="#FAF7F0"/>
    <path transform="translate(1832,776)" d="m0 0h7v5l-2 1h-11l1-4z" fill="#091C2D"/>
    <path transform="translate(849,562)" d="m0 0h9l-2 4h-20l3-2z" fill="#091B2C"/>
    <path transform="translate(498,971)" d="m0 0 2 1-9 9-5 12-4 2 3-9 6-8z" fill="#040418"/>
    <path transform="translate(1410,764)" d="m0 0h8l13 3v1h-12l-12-1v-2z" fill="#FCFCF8"/>
    <path transform="translate(1445,1100)" d="m0 0h6l2 2h13l1 2h-24z" fill="#071426"/>
    <path transform="translate(1173,942)" d="m0 0 1 2 4 1 5 4 4 2h-8l-8-2z" fill="#FE8A05"/>
    <path transform="translate(610,777)" d="m0 0h5l-3 2-12 6-7 4-2-1 5-5z" fill="#FE9707"/>
    <path transform="translate(561,766)" d="m0 0 15 1 2 2h-3l-1 3-7-1-2-2-4-1z" fill="#FE8D06"/>
    <path transform="translate(265,735)" d="m0 0 17 4v1h-9l-12-2-15-1v-1h18z" fill="#F5C981"/>
    <path transform="translate(876,558)" d="m0 0 4 2-9 3-4 1h-7l-1-2 5-1 4 1v-2z" fill="#08192B"/>
    <path transform="translate(694,368)" d="m0 0 3 3-3 11-2 1-1-11 1-2h2z" fill="#08192B"/>
    <path transform="translate(727,318)" d="m0 0h3l1 4-6 5-2-1v2l-2-1 1-4z" fill="#091B2C"/>
    <path transform="translate(824,562)" d="m0 0h25v1l-11 2-11-1z" fill="#040418"/>
    <path transform="translate(433,784)" d="m0 0h7l9 2-1 2h-11l-4-2z" fill="#091B2C"/>
    <path transform="translate(624,764)" d="m0 0h6l3 3-10 2h-4l2-4z" fill="#F6EDD6"/>
    <path transform="translate(788,280)" d="m0 0 2 2-8 4-10 4-2-1 6-4z" fill="#040418"/>
    <path transform="translate(325,752)" d="m0 0 10 1 3 1-1 3-12-2-3-2z" fill="#091B2D"/>
    <path transform="translate(1354,991)" d="m0 0 1 2-2 6-2 2h-5v-3z" fill="#FE8905"/>
    <path transform="translate(1449,929)" d="m0 0h8l8 3v1l-13-1-3-1z" fill="#FE9307"/>
    <path transform="translate(921,295)" d="m0 0 8 4 7 3-2 4-13-9z" fill="#050A1D"/>
    <path transform="translate(1786,736)" d="m0 0 4 1-6 3-9 1 2-4z" fill="#F19029"/>
    <path transform="translate(1865,768)" d="m0 0h1l1 6-5 1-10-1v-1l9-2 4-1z" fill="#FBDDA4"/>
    <path transform="translate(692,989)" d="m0 0 4 5 3 6-1 2h-2l-5-10z" fill="#FE8C06"/>
    <path transform="translate(1828,785)" d="m0 0 7 1v2l-3 1h-8l-1-3z" fill="#FE9808"/>
    <path transform="translate(901,280)" d="m0 0 6 2 11 6-1 2-16-8z" fill="#040418"/>
    <path transform="translate(1194,953)" d="m0 0 9 1 9 3v1l-10-1-8-3z" fill="#FE8705"/>
    <path transform="translate(1650,843)" d="m0 0 12 1v1l-15 2v-3z" fill="#FE9808"/>
    <path transform="translate(1530,811)" d="m0 0 7 1 7 3v1l-8-1-6-2z" fill="#E1D5D5"/>
    <path transform="translate(758,297)" d="m0 0 3 1-4 4-5 2v-3z" fill="#091B2C"/>
    <path transform="translate(964,490)" d="m0 0 1 3-3 2 2 2-4 1-2 2v-5l4-4 2 1z" fill="#071527"/>
    <path transform="translate(1357,987)" d="m0 0 3 1-6 11h-2l2-6z" fill="#FE9707"/>
    <path transform="translate(1475,766)" d="m0 0h10l-3 2-7 1-8-1v-1z" fill="#FE7F04"/>
    <path transform="translate(1807,740)" d="m0 0 13 3v1l-15-1-3-2z" fill="#FE7F04"/>
</svg>
